<svg xmlns="http://www.w3.org/2000/svg" xmlns:xlink="http://www.w3.org/1999/xlink" id="body_1" preserveAspectRatio="xMinYMin meet" viewBox="0 0 820 1160"><defs><clipPath id="1"><path id="" clip-rule="evenodd" transform="matrix(1 0 0 1 0 0)" d="M0 870L0 0L0 0L615 0L615 0L615 870L615 870L0 870z" /></clipPath><clipPath id="2"><path id="" clip-rule="evenodd" transform="matrix(1 0 0 1 0 0)" d="M0 0L614.4 0L614.4 0L614.4 869.1512L614.4 869.1512L0 869.1512L0 869.1512L0 0z" /></clipPath><clipPath id="3"><path id="" clip-rule="evenodd" transform="matrix(1 0 0 1 0 0)" d="M0 0L614.4 0L614.4 0L614.4 869.1512L614.4 869.1512L0 869.1512L0 869.1512L0 0z" /></clipPath><clipPath id="4"><path id="" clip-rule="evenodd" transform="matrix(1 0 0 1 0 0)" d="M53.19804 30.71997L149.1044 30.71997L149.1044 30.71997L149.1044 149.1044L149.1044 149.1044L53.19804 149.1044L53.19804 149.1044L53.19804 30.71997z" /></clipPath><clipPath id="5"><path id="" clip-rule="evenodd" transform="matrix(1 0 0 1 0 0)" d="M0 0L614.4 0L614.4 0L614.4 869.1512L614.4 869.1512L0 869.1512L0 869.1512L0 0z" /></clipPath><clipPath id="6"><path id="" clip-rule="evenodd" transform="matrix(1 0 0 1 0 0)" d="M0 0L614.4 0L614.4 0L614.4 869.1512L614.4 869.1512L0 869.1512L0 869.1512L0 0z" /></clipPath><clipPath id="7"><path id="" clip-rule="evenodd" transform="matrix(1 0 0 1 0 0)" d="M56.19512 33.71704L146.1073 33.71704L146.1073 33.71704L146.1073 146.1073L146.1073 146.1073L56.19512 146.1073L56.19512 146.1073L56.19512 33.71704z" /></clipPath><clipPath id="8"><path id="" clip-rule="evenodd" transform="matrix(1 0 0 1 0 0)" d="M0 0L614.4 0L614.4 0L614.4 869.1512L614.4 869.1512L0 869.1512L0 869.1512L0 0z" /></clipPath><clipPath id="9"><path id="" clip-rule="evenodd" transform="matrix(1 0 0 1 0 0)" d="M56.19512 33.71704L146.1073 33.71704L146.1073 33.71704L146.1073 146.1073L146.1073 146.1073L56.19512 146.1073L56.19512 146.1073L56.19512 33.71704z" /></clipPath><clipPath id="10"><path id="" clip-rule="evenodd" transform="matrix(1 0 0 1 0 0)" d="M56.19512 33.71704L146.1073 33.71704L146.1073 33.71704L146.1073 146.1073L146.1073 146.1073L56.19512 146.1073L56.19512 146.1073L56.19512 33.71704z" /></clipPath><clipPath id="11"><path id="" clip-rule="evenodd" transform="matrix(1 0 0 1 0 0)" d="M0 0L614.4 0L614.4 0L614.4 869.1512L614.4 869.1512L0 869.1512L0 869.1512L0 0z" /></clipPath><clipPath id="12"><path id="" clip-rule="evenodd" transform="matrix(1 0 0 1 0 0)" d="M0 0L614.4 0L614.4 0L614.4 869.1512L614.4 869.1512L0 869.1512L0 869.1512L0 0z" /></clipPath><clipPath id="13"><path id="" clip-rule="evenodd" transform="matrix(1 0 0 1 0 0)" d="M56.19512 33.71704L146.1073 33.71704L146.1073 33.71704L146.1073 146.1073L146.1073 146.1073L56.19512 146.1073L56.19512 146.1073L56.19512 33.71704z" /></clipPath><clipPath id="14"><path id="" clip-rule="evenodd" transform="matrix(1 0 0 1 0 0)" d="M0 0L614.4 0L614.4 0L614.4 869.1512L614.4 869.1512L0 869.1512L0 869.1512L0 0z" /></clipPath><clipPath id="15"><path id="" clip-rule="evenodd" transform="matrix(1 0 0 1 0 0)" d="M56.19512 33.71704L146.1073 33.71704L146.1073 33.71704L146.1073 146.1073L146.1073 146.1073L56.19512 146.1073L56.19512 146.1073L56.19512 33.71704z" /></clipPath><clipPath id="16"><path id="" clip-rule="evenodd" transform="matrix(1 0 0 1 0 0)" d="M56.19512 33.71704L146.1073 33.71704L146.1073 33.71704L146.1073 146.1073L146.1073 146.1073L56.19512 146.1073L56.19512 146.1073L56.19512 33.71704z" /></clipPath><clipPath id="17"><path id="" clip-rule="evenodd" transform="matrix(1 0 0 1 0 0)" d="M0 0L614.4 0L614.4 0L614.4 869.1512L614.4 869.1512L0 869.1512L0 869.1512L0 0z" /></clipPath><clipPath id="18"><path id="" clip-rule="evenodd" transform="matrix(1 0 0 1 0 0)" d="M0 0L614.4 0L614.4 0L614.4 869.1512L614.4 869.1512L0 869.1512L0 869.1512L0 0z" /></clipPath><clipPath id="19"><path id="" clip-rule="evenodd" transform="matrix(1 0 0 1 0 0)" d="M56.19512 33.71704L146.1073 33.71704L146.1073 33.71704L146.1073 146.1073L146.1073 146.1073L56.19512 146.1073L56.19512 146.1073L56.19512 33.71704z" /></clipPath><clipPath id="20"><path id="" clip-rule="evenodd" transform="matrix(1 0 0 1 0 0)" d="M0 0L614.4 0L614.4 0L614.4 869.1512L614.4 869.1512L0 869.1512L0 869.1512L0 0z" /></clipPath><clipPath id="21"><path id="" clip-rule="evenodd" transform="matrix(1 0 0 1 0 0)" d="M56.19512 33.71704L146.1073 33.71704L146.1073 33.71704L146.1073 146.1073L146.1073 146.1073L56.19512 146.1073L56.19512 146.1073L56.19512 33.71704z" /></clipPath><clipPath id="22"><path id="" clip-rule="evenodd" transform="matrix(1 0 0 1 0 0)" d="M56.19512 33.71704L146.1073 33.71704L146.1073 33.71704L146.1073 146.1073L146.1073 146.1073L56.19512 146.1073L56.19512 146.1073L56.19512 33.71704z" /></clipPath><clipPath id="23"><path id="" clip-rule="evenodd" transform="matrix(1 0 0 1 0 0)" d="M0 0L614.4 0L614.4 0L614.4 869.1512L614.4 869.1512L0 869.1512L0 869.1512L0 0z" /></clipPath><clipPath id="24"><path id="" clip-rule="evenodd" transform="matrix(1 0 0 1 0 0)" d="M0 0L614.4 0L614.4 0L614.4 869.1512L614.4 869.1512L0 869.1512L0 869.1512L0 0z" /></clipPath><clipPath id="25"><path id="" clip-rule="evenodd" transform="matrix(1 0 0 1 0 0)" d="M56.19512 33.71704L146.1073 33.71704L146.1073 33.71704L146.1073 146.1073L146.1073 146.1073L56.19512 146.1073L56.19512 146.1073L56.19512 33.71704z" /></clipPath><clipPath id="26"><path id="" clip-rule="evenodd" transform="matrix(1 0 0 1 0 0)" d="M0 0L614.4 0L614.4 0L614.4 869.1512L614.4 869.1512L0 869.1512L0 869.1512L0 0z" /></clipPath><clipPath id="27"><path id="" clip-rule="evenodd" transform="matrix(1 0 0 1 0 0)" d="M56.19512 33.71704L146.1073 33.71704L146.1073 33.71704L146.1073 146.1073L146.1073 146.1073L56.19512 146.1073L56.19512 146.1073L56.19512 33.71704z" /></clipPath><clipPath id="28"><path id="" clip-rule="evenodd" transform="matrix(1 0 0 1 0 0)" d="M56.19512 33.71704L146.1073 33.71704L146.1073 33.71704L146.1073 146.1073L146.1073 146.1073L56.19512 146.1073L56.19512 146.1073L56.19512 33.71704z" /></clipPath><clipPath id="29"><path id="" clip-rule="evenodd" transform="matrix(1 0 0 1 0 0)" d="M0 0L614.4 0L614.4 0L614.4 869.1512L614.4 869.1512L0 869.1512L0 869.1512L0 0z" /></clipPath><clipPath id="30"><path id="" clip-rule="evenodd" transform="matrix(1 0 0 1 0 0)" d="M0 0L614.4 0L614.4 0L614.4 869.1512L614.4 869.1512L0 869.1512L0 869.1512L0 0z" /></clipPath><clipPath id="31"><path id="" clip-rule="evenodd" transform="matrix(1 0 0 1 0 0)" d="M56.19512 33.71704L146.1073 33.71704L146.1073 33.71704L146.1073 146.1073L146.1073 146.1073L56.19512 146.1073L56.19512 146.1073L56.19512 33.71704z" /></clipPath><clipPath id="32"><path id="" clip-rule="evenodd" transform="matrix(1 0 0 1 0 0)" d="M0 0L614.4 0L614.4 0L614.4 869.1512L614.4 869.1512L0 869.1512L0 869.1512L0 0z" /></clipPath><clipPath id="33"><path id="" clip-rule="evenodd" transform="matrix(1 0 0 1 0 0)" d="M0 0L614.4 0L614.4 0L614.4 869.1512L614.4 869.1512L0 869.1512L0 869.1512L0 0z" /></clipPath><clipPath id="34"><path id="" clip-rule="evenodd" transform="matrix(1 0 0 1 0 0)" d="M46.45463 414.3453L107.8946 414.3453L107.8946 414.3453L107.8946 433.8263L107.8946 433.8263L46.45463 433.8263L46.45463 433.8263L46.45463 414.3453z" /></clipPath><clipPath id="35"><path id="" clip-rule="evenodd" transform="matrix(1 0 0 1 0 0)" d="M0 0L614.4 0L614.4 0L614.4 869.1512L614.4 869.1512L0 869.1512L0 869.1512L0 0z" /></clipPath><clipPath id="36"><path id="" clip-rule="evenodd" transform="matrix(1 0 0 1 0 0)" d="M0 0L614.4 0L614.4 0L614.4 869.1512L614.4 869.1512L0 869.1512L0 869.1512L0 0z" /></clipPath><clipPath id="37"><path id="" clip-rule="evenodd" transform="matrix(1 0 0 1 0 0)" d="M46.45463 414.3453L107.8946 414.3453L107.8946 414.3453L107.8946 433.8263L107.8946 433.8263L46.45463 433.8263L46.45463 433.8263L46.45463 414.3453z" /></clipPath><clipPath id="38"><path id="" clip-rule="evenodd" transform="matrix(1 0 0 1 0 0)" d="M0 0L614.4 0L614.4 0L614.4 869.1512L614.4 869.1512L0 869.1512L0 869.1512L0 0z" /></clipPath><clipPath id="39"><path id="" clip-rule="evenodd" transform="matrix(1 0 0 1 0 0)" d="M0 0L614.4 0L614.4 0L614.4 869.1512L614.4 869.1512L0 869.1512L0 869.1512L0 0z" /></clipPath><clipPath id="40"><path id="" clip-rule="evenodd" transform="matrix(1 0 0 1 0 0)" d="M52.44878 445.0653C 66.51104 445.0653 77.9239 456.4782 77.9239 470.5405C 77.9239 484.6027 66.51104 496.0156 52.44878 496.0156C 38.38651 496.0156 26.97366 484.6027 26.97366 470.5405C 26.97366 456.4782 38.38651 445.0653 52.44878 445.0653z" /></clipPath><clipPath id="41"><path id="" clip-rule="evenodd" transform="matrix(1 0 0 1 0 0)" d="M0 0L614.4 0L614.4 0L614.4 869.1512L614.4 869.1512L0 869.1512L0 869.1512L0 0z" /></clipPath><clipPath id="42"><path id="" clip-rule="evenodd" transform="matrix(1 0 0 1 0 0)" d="M0 0L614.4 0L614.4 0L614.4 869.1512L614.4 869.1512L0 869.1512L0 869.1512L0 0z" /></clipPath><clipPath id="43"><path id="" clip-rule="evenodd" transform="matrix(1 0 0 1 0 0)" d="M29.97073 448.0624L74.92682 448.0624L74.92682 448.0624L74.92682 493.0185L74.92682 493.0185L29.97073 493.0185L29.97073 493.0185L29.97073 448.0624z" /></clipPath><clipPath id="44"><path id="" clip-rule="evenodd" transform="matrix(1 0 0 1 0 0)" d="M0 0L614.4 0L614.4 0L614.4 869.1512L614.4 869.1512L0 869.1512L0 869.1512L0 0z" /></clipPath><clipPath id="45"><path id="" clip-rule="evenodd" transform="matrix(1 0 0 1 0 0)" d="M0 0L614.4 0L614.4 0L614.4 869.1512L614.4 869.1512L0 869.1512L0 869.1512L0 0z" /></clipPath><clipPath id="46"><path id="" clip-rule="evenodd" transform="matrix(1 0 0 1 0 0)" d="M29.97073 448.0624L74.92682 448.0624L74.92682 448.0624L74.92682 493.0185L74.92682 493.0185L29.97073 493.0185L29.97073 493.0185L29.97073 448.0624z" /></clipPath><clipPath id="47"><path id="" clip-rule="evenodd" transform="matrix(1 0 0 1 0 0)" d="M0 0L614.4 0L614.4 0L614.4 869.1512L614.4 869.1512L0 869.1512L0 869.1512L0 0z" /></clipPath><clipPath id="48"><path id="" clip-rule="evenodd" transform="matrix(1 0 0 1 0 0)" d="M0 0L614.4 0L614.4 0L614.4 869.1512L614.4 869.1512L0 869.1512L0 869.1512L0 0z" /></clipPath><clipPath id="49"><path id="" clip-rule="evenodd" transform="matrix(1 0 0 1 0 0)" d="M29.97073 448.0624L74.92682 448.0624L74.92682 448.0624L74.92682 493.0185L74.92682 493.0185L29.97073 493.0185L29.97073 493.0185L29.97073 448.0624z" /></clipPath><clipPath id="50"><path id="" clip-rule="evenodd" transform="matrix(1 0 0 1 0 0)" d="M0 0L614.4 0L614.4 0L614.4 869.1512L614.4 869.1512L0 869.1512L0 869.1512L0 0z" /></clipPath><clipPath id="51"><path id="" clip-rule="evenodd" transform="matrix(1 0 0 1 0 0)" d="M0 0L614.4 0L614.4 0L614.4 869.1512L614.4 869.1512L0 869.1512L0 869.1512L0 0z" /></clipPath><clipPath id="52"><path id="" clip-rule="evenodd" transform="matrix(1 0 0 1 0 0)" d="M29.97073 448.0624L74.92682 448.0624L74.92682 448.0624L74.92682 493.0185L74.92682 493.0185L29.97073 493.0185L29.97073 493.0185L29.97073 448.0624z" /></clipPath><clipPath id="53"><path id="" clip-rule="evenodd" transform="matrix(1 0 0 1 0 0)" d="M0 0L614.4 0L614.4 0L614.4 869.1512L614.4 869.1512L0 869.1512L0 869.1512L0 0z" /></clipPath><clipPath id="54"><path id="" clip-rule="evenodd" transform="matrix(1 0 0 1 0 0)" d="M0 0L614.4 0L614.4 0L614.4 869.1512L614.4 869.1512L0 869.1512L0 869.1512L0 0z" /></clipPath><clipPath id="55"><path id="" clip-rule="evenodd" transform="matrix(1 0 0 1 0 0)" d="M29.97073 448.0624L74.92682 448.0624L74.92682 448.0624L74.92682 493.0185L74.92682 493.0185L29.97073 493.0185L29.97073 493.0185L29.97073 448.0624z" /></clipPath><clipPath id="56"><path id="" clip-rule="evenodd" transform="matrix(1 0 0 1 0 0)" d="M0 0L614.4 0L614.4 0L614.4 869.1512L614.4 869.1512L0 869.1512L0 869.1512L0 0z" /></clipPath><clipPath id="57"><path id="" clip-rule="evenodd" transform="matrix(1 0 0 1 0 0)" d="M0 0L614.4 0L614.4 0L614.4 869.1512L614.4 869.1512L0 869.1512L0 869.1512L0 0z" /></clipPath><clipPath id="58"><path id="" clip-rule="evenodd" transform="matrix(1 0 0 1 0 0)" d="M142.361 445.0653C 156.4232 445.0653 167.8361 456.4782 167.8361 470.5405C 167.8361 484.6027 156.4232 496.0156 142.361 496.0156C 128.2987 496.0156 116.8858 484.6027 116.8858 470.5405C 116.8858 456.4782 128.2987 445.0653 142.361 445.0653z" /></clipPath><clipPath id="59"><path id="" clip-rule="evenodd" transform="matrix(1 0 0 1 0 0)" d="M0 0L614.4 0L614.4 0L614.4 869.1512L614.4 869.1512L0 869.1512L0 869.1512L0 0z" /></clipPath><clipPath id="60"><path id="" clip-rule="evenodd" transform="matrix(1 0 0 1 0 0)" d="M0 0L614.4 0L614.4 0L614.4 869.1512L614.4 869.1512L0 869.1512L0 869.1512L0 0z" /></clipPath><clipPath id="61"><path id="" clip-rule="evenodd" transform="matrix(1 0 0 1 0 0)" d="M119.8829 448.0624L164.839 448.0624L164.839 448.0624L164.839 493.0185L164.839 493.0185L119.8829 493.0185L119.8829 493.0185L119.8829 448.0624z" /></clipPath><clipPath id="62"><path id="" clip-rule="evenodd" transform="matrix(1 0 0 1 0 0)" d="M0 0L614.4 0L614.4 0L614.4 869.1512L614.4 869.1512L0 869.1512L0 869.1512L0 0z" /></clipPath><clipPath id="63"><path id="" clip-rule="evenodd" transform="matrix(1 0 0 1 0 0)" d="M0 0L614.4 0L614.4 0L614.4 869.1512L614.4 869.1512L0 869.1512L0 869.1512L0 0z" /></clipPath><clipPath id="64"><path id="" clip-rule="evenodd" transform="matrix(1 0 0 1 0 0)" d="M119.8829 448.0624L164.839 448.0624L164.839 448.0624L164.839 493.0185L164.839 493.0185L119.8829 493.0185L119.8829 493.0185L119.8829 448.0624z" /></clipPath><clipPath id="65"><path id="" clip-rule="evenodd" transform="matrix(1 0 0 1 0 0)" d="M0 0L614.4 0L614.4 0L614.4 869.1512L614.4 869.1512L0 869.1512L0 869.1512L0 0z" /></clipPath><clipPath id="66"><path id="" clip-rule="evenodd" transform="matrix(1 0 0 1 0 0)" d="M0 0L614.4 0L614.4 0L614.4 869.1512L614.4 869.1512L0 869.1512L0 869.1512L0 0z" /></clipPath><clipPath id="67"><path id="" clip-rule="evenodd" transform="matrix(1 0 0 1 0 0)" d="M119.8829 448.0624L164.839 448.0624L164.839 448.0624L164.839 493.0185L164.839 493.0185L119.8829 493.0185L119.8829 493.0185L119.8829 448.0624z" /></clipPath><clipPath id="68"><path id="" clip-rule="evenodd" transform="matrix(1 0 0 1 0 0)" d="M0 0L614.4 0L614.4 0L614.4 869.1512L614.4 869.1512L0 869.1512L0 869.1512L0 0z" /></clipPath><clipPath id="69"><path id="" clip-rule="evenodd" transform="matrix(1 0 0 1 0 0)" d="M0 0L614.4 0L614.4 0L614.4 869.1512L614.4 869.1512L0 869.1512L0 869.1512L0 0z" /></clipPath><clipPath id="70"><path id="" clip-rule="evenodd" transform="matrix(1 0 0 1 0 0)" d="M119.8829 448.0624L164.839 448.0624L164.839 448.0624L164.839 493.0185L164.839 493.0185L119.8829 493.0185L119.8829 493.0185L119.8829 448.0624z" /></clipPath><clipPath id="71"><path id="" clip-rule="evenodd" transform="matrix(1 0 0 1 0 0)" d="M0 0L614.4 0L614.4 0L614.4 869.1512L614.4 869.1512L0 869.1512L0 869.1512L0 0z" /></clipPath><clipPath id="72"><path id="" clip-rule="evenodd" transform="matrix(1 0 0 1 0 0)" d="M0 0L614.4 0L614.4 0L614.4 869.1512L614.4 869.1512L0 869.1512L0 869.1512L0 0z" /></clipPath><clipPath id="73"><path id="" clip-rule="evenodd" transform="matrix(1 0 0 1 0 0)" d="M119.8829 448.0624L164.839 448.0624L164.839 448.0624L164.839 493.0185L164.839 493.0185L119.8829 493.0185L119.8829 493.0185L119.8829 448.0624z" /></clipPath><clipPath id="74"><path id="" clip-rule="evenodd" transform="matrix(1 0 0 1 0 0)" d="M0 0L614.4 0L614.4 0L614.4 869.1512L614.4 869.1512L0 869.1512L0 869.1512L0 0z" /></clipPath><clipPath id="75"><path id="" clip-rule="evenodd" transform="matrix(1 0 0 1 0 0)" d="M0 0L614.4 0L614.4 0L614.4 869.1512L614.4 869.1512L0 869.1512L0 869.1512L0 0z" /></clipPath><clipPath id="76"><path id="" clip-rule="evenodd" transform="matrix(1 0 0 1 0 0)" d="M52.44878 538.7239C 66.51104 538.7239 77.9239 550.1367 77.9239 564.199C 77.9239 578.2612 66.51104 589.6741 52.44878 589.6741C 38.38651 589.6741 26.97366 578.2612 26.97366 564.199C 26.97366 550.1367 38.38651 538.7239 52.44878 538.7239z" /></clipPath><clipPath id="77"><path id="" clip-rule="evenodd" transform="matrix(1 0 0 1 0 0)" d="M0 0L614.4 0L614.4 0L614.4 869.1512L614.4 869.1512L0 869.1512L0 869.1512L0 0z" /></clipPath><clipPath id="78"><path id="" clip-rule="evenodd" transform="matrix(1 0 0 1 0 0)" d="M0 0L614.4 0L614.4 0L614.4 869.1512L614.4 869.1512L0 869.1512L0 869.1512L0 0z" /></clipPath><clipPath id="79"><path id="" clip-rule="evenodd" transform="matrix(1 0 0 1 0 0)" d="M29.97073 541.7209L74.92682 541.7209L74.92682 541.7209L74.92682 586.6771L74.92682 586.6771L29.97073 586.6771L29.97073 586.6771L29.97073 541.7209z" /></clipPath><clipPath id="80"><path id="" clip-rule="evenodd" transform="matrix(1 0 0 1 0 0)" d="M0 0L614.4 0L614.4 0L614.4 869.1512L614.4 869.1512L0 869.1512L0 869.1512L0 0z" /></clipPath><clipPath id="81"><path id="" clip-rule="evenodd" transform="matrix(1 0 0 1 0 0)" d="M0 0L614.4 0L614.4 0L614.4 869.1512L614.4 869.1512L0 869.1512L0 869.1512L0 0z" /></clipPath><clipPath id="82"><path id="" clip-rule="evenodd" transform="matrix(1 0 0 1 0 0)" d="M29.97073 541.7209L74.92682 541.7209L74.92682 541.7209L74.92682 586.6771L74.92682 586.6771L29.97073 586.6771L29.97073 586.6771L29.97073 541.7209z" /></clipPath><clipPath id="83"><path id="" clip-rule="evenodd" transform="matrix(1 0 0 1 0 0)" d="M0 0L614.4 0L614.4 0L614.4 869.1512L614.4 869.1512L0 869.1512L0 869.1512L0 0z" /></clipPath><clipPath id="84"><path id="" clip-rule="evenodd" transform="matrix(1 0 0 1 0 0)" d="M0 0L614.4 0L614.4 0L614.4 869.1512L614.4 869.1512L0 869.1512L0 869.1512L0 0z" /></clipPath><clipPath id="85"><path id="" clip-rule="evenodd" transform="matrix(1 0 0 1 0 0)" d="M29.97073 541.7209L74.92682 541.7209L74.92682 541.7209L74.92682 586.6771L74.92682 586.6771L29.97073 586.6771L29.97073 586.6771L29.97073 541.7209z" /></clipPath><clipPath id="86"><path id="" clip-rule="evenodd" transform="matrix(1 0 0 1 0 0)" d="M0 0L614.4 0L614.4 0L614.4 869.1512L614.4 869.1512L0 869.1512L0 869.1512L0 0z" /></clipPath><clipPath id="87"><path id="" clip-rule="evenodd" transform="matrix(1 0 0 1 0 0)" d="M0 0L614.4 0L614.4 0L614.4 869.1512L614.4 869.1512L0 869.1512L0 869.1512L0 0z" /></clipPath><clipPath id="88"><path id="" clip-rule="evenodd" transform="matrix(1 0 0 1 0 0)" d="M29.97073 541.7209L74.92682 541.7209L74.92682 541.7209L74.92682 586.6771L74.92682 586.6771L29.97073 586.6771L29.97073 586.6771L29.97073 541.7209z" /></clipPath><clipPath id="89"><path id="" clip-rule="evenodd" transform="matrix(1 0 0 1 0 0)" d="M0 0L614.4 0L614.4 0L614.4 869.1512L614.4 869.1512L0 869.1512L0 869.1512L0 0z" /></clipPath><clipPath id="90"><path id="" clip-rule="evenodd" transform="matrix(1 0 0 1 0 0)" d="M0 0L614.4 0L614.4 0L614.4 869.1512L614.4 869.1512L0 869.1512L0 869.1512L0 0z" /></clipPath><clipPath id="91"><path id="" clip-rule="evenodd" transform="matrix(1 0 0 1 0 0)" d="M29.97073 541.7209L74.92682 541.7209L74.92682 541.7209L74.92682 586.6771L74.92682 586.6771L29.97073 586.6771L29.97073 586.6771L29.97073 541.7209z" /></clipPath><clipPath id="92"><path id="" clip-rule="evenodd" transform="matrix(1 0 0 1 0 0)" d="M0 0L614.4 0L614.4 0L614.4 869.1512L614.4 869.1512L0 869.1512L0 869.1512L0 0z" /></clipPath><clipPath id="93"><path id="" clip-rule="evenodd" transform="matrix(1 0 0 1 0 0)" d="M0 0L614.4 0L614.4 0L614.4 869.1512L614.4 869.1512L0 869.1512L0 869.1512L0 0z" /></clipPath><clipPath id="94"><path id="" clip-rule="evenodd" transform="matrix(1 0 0 1 0 0)" d="M142.361 538.7239C 156.4232 538.7239 167.8361 550.1367 167.8361 564.199C 167.8361 578.2612 156.4232 589.6741 142.361 589.6741C 128.2987 589.6741 116.8858 578.2612 116.8858 564.199C 116.8858 550.1367 128.2987 538.7239 142.361 538.7239z" /></clipPath><clipPath id="95"><path id="" clip-rule="evenodd" transform="matrix(1 0 0 1 0 0)" d="M0 0L614.4 0L614.4 0L614.4 869.1512L614.4 869.1512L0 869.1512L0 869.1512L0 0z" /></clipPath><clipPath id="96"><path id="" clip-rule="evenodd" transform="matrix(1 0 0 1 0 0)" d="M0 0L614.4 0L614.4 0L614.4 869.1512L614.4 869.1512L0 869.1512L0 869.1512L0 0z" /></clipPath><clipPath id="97"><path id="" clip-rule="evenodd" transform="matrix(1 0 0 1 0 0)" d="M119.8829 541.7209L164.839 541.7209L164.839 541.7209L164.839 586.6771L164.839 586.6771L119.8829 586.6771L119.8829 586.6771L119.8829 541.7209z" /></clipPath><clipPath id="98"><path id="" clip-rule="evenodd" transform="matrix(1 0 0 1 0 0)" d="M0 0L614.4 0L614.4 0L614.4 869.1512L614.4 869.1512L0 869.1512L0 869.1512L0 0z" /></clipPath><clipPath id="99"><path id="" clip-rule="evenodd" transform="matrix(1 0 0 1 0 0)" d="M0 0L614.4 0L614.4 0L614.4 869.1512L614.4 869.1512L0 869.1512L0 869.1512L0 0z" /></clipPath><clipPath id="100"><path id="" clip-rule="evenodd" transform="matrix(1 0 0 1 0 0)" d="M119.8829 541.7209L164.839 541.7209L164.839 541.7209L164.839 586.6771L164.839 586.6771L119.8829 586.6771L119.8829 586.6771L119.8829 541.7209z" /></clipPath><clipPath id="101"><path id="" clip-rule="evenodd" transform="matrix(1 0 0 1 0 0)" d="M0 0L614.4 0L614.4 0L614.4 869.1512L614.4 869.1512L0 869.1512L0 869.1512L0 0z" /></clipPath><clipPath id="102"><path id="" clip-rule="evenodd" transform="matrix(1 0 0 1 0 0)" d="M0 0L614.4 0L614.4 0L614.4 869.1512L614.4 869.1512L0 869.1512L0 869.1512L0 0z" /></clipPath><clipPath id="103"><path id="" clip-rule="evenodd" transform="matrix(1 0 0 1 0 0)" d="M119.8829 541.7209L164.839 541.7209L164.839 541.7209L164.839 586.6771L164.839 586.6771L119.8829 586.6771L119.8829 586.6771L119.8829 541.7209z" /></clipPath><clipPath id="104"><path id="" clip-rule="evenodd" transform="matrix(1 0 0 1 0 0)" d="M0 0L614.4 0L614.4 0L614.4 869.1512L614.4 869.1512L0 869.1512L0 869.1512L0 0z" /></clipPath><clipPath id="105"><path id="" clip-rule="evenodd" transform="matrix(1 0 0 1 0 0)" d="M0 0L614.4 0L614.4 0L614.4 869.1512L614.4 869.1512L0 869.1512L0 869.1512L0 0z" /></clipPath><clipPath id="106"><path id="" clip-rule="evenodd" transform="matrix(1 0 0 1 0 0)" d="M119.8829 541.7209L164.839 541.7209L164.839 541.7209L164.839 586.6771L164.839 586.6771L119.8829 586.6771L119.8829 586.6771L119.8829 541.7209z" /></clipPath><clipPath id="107"><path id="" clip-rule="evenodd" transform="matrix(1 0 0 1 0 0)" d="M0 0L614.4 0L614.4 0L614.4 869.1512L614.4 869.1512L0 869.1512L0 869.1512L0 0z" /></clipPath><clipPath id="108"><path id="" clip-rule="evenodd" transform="matrix(1 0 0 1 0 0)" d="M0 0L614.4 0L614.4 0L614.4 869.1512L614.4 869.1512L0 869.1512L0 869.1512L0 0z" /></clipPath><clipPath id="109"><path id="" clip-rule="evenodd" transform="matrix(1 0 0 1 0 0)" d="M119.8829 541.7209L164.839 541.7209L164.839 541.7209L164.839 586.6771L164.839 586.6771L119.8829 586.6771L119.8829 586.6771L119.8829 541.7209z" /></clipPath><clipPath id="110"><path id="" clip-rule="evenodd" transform="matrix(1 0 0 1 0 0)" d="M0 0L614.4 0L614.4 0L614.4 869.1512L614.4 869.1512L0 869.1512L0 869.1512L0 0z" /></clipPath><clipPath id="111"><path id="" clip-rule="evenodd" transform="matrix(1 0 0 1 0 0)" d="M0 0L614.4 0L614.4 0L614.4 869.1512L614.4 869.1512L0 869.1512L0 869.1512L0 0z" /></clipPath><clipPath id="112"><path id="" clip-rule="evenodd" transform="matrix(1 0 0 1 0 0)" d="M38.96195 642.8721L164.0897 642.8721C 165.7441 642.8721 167.0868 644.2148 167.0868 645.8692L167.0868 645.8692L167.0868 770.9971C 167.0868 772.6514 165.7441 773.9941 164.0897 773.9941L164.0897 773.9941L38.96195 773.9941C 37.30756 773.9941 35.96487 772.6514 35.96487 770.9971L35.96487 770.9971L35.96487 645.8692C 35.96487 644.2148 37.30756 642.8721 38.96195 642.8721z" /></clipPath><clipPath id="113"><path id="" clip-rule="evenodd" transform="matrix(1 0 0 1 0 0)" d="M0 0L614.4 0L614.4 0L614.4 869.1512L614.4 869.1512L0 869.1512L0 869.1512L0 0z" /></clipPath><clipPath id="114"><path id="" clip-rule="evenodd" transform="matrix(1 0 0 1 0 0)" d="M38.96195 642.8721L164.0897 642.8721C 165.7441 642.8721 167.0868 644.2148 167.0868 645.8692L167.0868 645.8692L167.0868 770.9971C 167.0868 772.6514 165.7441 773.9941 164.0897 773.9941L164.0897 773.9941L38.96195 773.9941C 37.30756 773.9941 35.96487 772.6514 35.96487 770.9971L35.96487 770.9971L35.96487 645.8692C 35.96487 644.2148 37.30756 642.8721 38.96195 642.8721z" /></clipPath><clipPath id="115"><path id="" clip-rule="evenodd" transform="matrix(1 0 0 1 0 0)" d="M43.45756 650.3648L159.5941 650.3648L159.5941 650.3648L159.5941 766.5014L159.5941 766.5014L43.45756 766.5014L43.45756 766.5014L43.45756 650.3648z" /></clipPath><clipPath id="116"><path id="" clip-rule="evenodd" transform="matrix(1 0 0 1 0 0)" d="M0 0L614.4 0L614.4 0L614.4 869.1512L614.4 869.1512L0 869.1512L0 869.1512L0 0z" /></clipPath><clipPath id="117"><path id="" clip-rule="evenodd" transform="matrix(1 0 0 1 0 0)" d="M0 0L614.4 0L614.4 0L614.4 869.1512L614.4 869.1512L0 869.1512L0 869.1512L0 0z" /></clipPath><clipPath id="118"><path id="" clip-rule="evenodd" transform="matrix(1 0 0 1 0 0)" d="M38.96195 642.8721L164.0897 642.8721C 165.7441 642.8721 167.0868 644.2148 167.0868 645.8692L167.0868 645.8692L167.0868 770.9971C 167.0868 772.6514 165.7441 773.9941 164.0897 773.9941L164.0897 773.9941L38.96195 773.9941C 37.30756 773.9941 35.96487 772.6514 35.96487 770.9971L35.96487 770.9971L35.96487 645.8692C 35.96487 644.2148 37.30756 642.8721 38.96195 642.8721z" /></clipPath><clipPath id="119"><path id="" clip-rule="evenodd" transform="matrix(1 0 0 1 0 0)" d="M0 0L614.4 0L614.4 0L614.4 869.1512L614.4 869.1512L0 869.1512L0 869.1512L0 0z" /></clipPath><clipPath id="120"><path id="" clip-rule="evenodd" transform="matrix(1 0 0 1 0 0)" d="M38.96195 642.8721L164.0897 642.8721C 165.7441 642.8721 167.0868 644.2148 167.0868 645.8692L167.0868 645.8692L167.0868 770.9971C 167.0868 772.6514 165.7441 773.9941 164.0897 773.9941L164.0897 773.9941L38.96195 773.9941C 37.30756 773.9941 35.96487 772.6514 35.96487 770.9971L35.96487 770.9971L35.96487 645.8692C 35.96487 644.2148 37.30756 642.8721 38.96195 642.8721z" /></clipPath><clipPath id="121"><path id="" clip-rule="evenodd" transform="matrix(1 0 0 1 0 0)" d="M43.45756 650.3648L159.5941 650.3648L159.5941 650.3648L159.5941 766.5014L159.5941 766.5014L43.45756 766.5014L43.45756 766.5014L43.45756 650.3648z" /></clipPath><clipPath id="122"><path id="" clip-rule="evenodd" transform="matrix(1 0 0 1 0 0)" d="M0 0L614.4 0L614.4 0L614.4 869.1512L614.4 869.1512L0 869.1512L0 869.1512L0 0z" /></clipPath><clipPath id="123"><path id="" clip-rule="evenodd" transform="matrix(1 0 0 1 0 0)" d="M0 0L614.4 0L614.4 0L614.4 869.1512L614.4 869.1512L0 869.1512L0 869.1512L0 0z" /></clipPath><clipPath id="124"><path id="" clip-rule="evenodd" transform="matrix(1 0 0 1 0 0)" d="M38.96195 642.8721L164.0897 642.8721C 165.7441 642.8721 167.0868 644.2148 167.0868 645.8692L167.0868 645.8692L167.0868 770.9971C 167.0868 772.6514 165.7441 773.9941 164.0897 773.9941L164.0897 773.9941L38.96195 773.9941C 37.30756 773.9941 35.96487 772.6514 35.96487 770.9971L35.96487 770.9971L35.96487 645.8692C 35.96487 644.2148 37.30756 642.8721 38.96195 642.8721z" /></clipPath><clipPath id="125"><path id="" clip-rule="evenodd" transform="matrix(1 0 0 1 0 0)" d="M0 0L614.4 0L614.4 0L614.4 869.1512L614.4 869.1512L0 869.1512L0 869.1512L0 0z" /></clipPath><clipPath id="126"><path id="" clip-rule="evenodd" transform="matrix(1 0 0 1 0 0)" d="M38.96195 642.8721L164.0897 642.8721C 165.7441 642.8721 167.0868 644.2148 167.0868 645.8692L167.0868 645.8692L167.0868 770.9971C 167.0868 772.6514 165.7441 773.9941 164.0897 773.9941L164.0897 773.9941L38.96195 773.9941C 37.30756 773.9941 35.96487 772.6514 35.96487 770.9971L35.96487 770.9971L35.96487 645.8692C 35.96487 644.2148 37.30756 642.8721 38.96195 642.8721z" /></clipPath><clipPath id="127"><path id="" clip-rule="evenodd" transform="matrix(1 0 0 1 0 0)" d="M43.45756 650.3648L159.5941 650.3648L159.5941 650.3648L159.5941 766.5014L159.5941 766.5014L43.45756 766.5014L43.45756 766.5014L43.45756 650.3648z" /></clipPath><clipPath id="128"><path id="" clip-rule="evenodd" transform="matrix(1 0 0 1 0 0)" d="M0 0L614.4 0L614.4 0L614.4 869.1512L614.4 869.1512L0 869.1512L0 869.1512L0 0z" /></clipPath><clipPath id="129"><path id="" clip-rule="evenodd" transform="matrix(1 0 0 1 0 0)" d="M0 0L614.4 0L614.4 0L614.4 869.1512L614.4 869.1512L0 869.1512L0 869.1512L0 0z" /></clipPath><clipPath id="130"><path id="" clip-rule="evenodd" transform="matrix(1 0 0 1 0 0)" d="M38.96195 642.8721L164.0897 642.8721C 165.7441 642.8721 167.0868 644.2148 167.0868 645.8692L167.0868 645.8692L167.0868 770.9971C 167.0868 772.6514 165.7441 773.9941 164.0897 773.9941L164.0897 773.9941L38.96195 773.9941C 37.30756 773.9941 35.96487 772.6514 35.96487 770.9971L35.96487 770.9971L35.96487 645.8692C 35.96487 644.2148 37.30756 642.8721 38.96195 642.8721z" /></clipPath><clipPath id="131"><path id="" clip-rule="evenodd" transform="matrix(1 0 0 1 0 0)" d="M0 0L614.4 0L614.4 0L614.4 869.1512L614.4 869.1512L0 869.1512L0 869.1512L0 0z" /></clipPath><clipPath id="132"><path id="" clip-rule="evenodd" transform="matrix(1 0 0 1 0 0)" d="M38.96195 642.8721L164.0897 642.8721C 165.7441 642.8721 167.0868 644.2148 167.0868 645.8692L167.0868 645.8692L167.0868 770.9971C 167.0868 772.6514 165.7441 773.9941 164.0897 773.9941L164.0897 773.9941L38.96195 773.9941C 37.30756 773.9941 35.96487 772.6514 35.96487 770.9971L35.96487 770.9971L35.96487 645.8692C 35.96487 644.2148 37.30756 642.8721 38.96195 642.8721z" /></clipPath><clipPath id="133"><path id="" clip-rule="evenodd" transform="matrix(1 0 0 1 0 0)" d="M43.45756 650.3648L159.5941 650.3648L159.5941 650.3648L159.5941 766.5014L159.5941 766.5014L43.45756 766.5014L43.45756 766.5014L43.45756 650.3648z" /></clipPath><clipPath id="134"><path id="" clip-rule="evenodd" transform="matrix(1 0 0 1 0 0)" d="M0 0L614.4 0L614.4 0L614.4 869.1512L614.4 869.1512L0 869.1512L0 869.1512L0 0z" /></clipPath><clipPath id="135"><path id="" clip-rule="evenodd" transform="matrix(1 0 0 1 0 0)" d="M0 0L614.4 0L614.4 0L614.4 869.1512L614.4 869.1512L0 869.1512L0 869.1512L0 0z" /></clipPath><clipPath id="136"><path id="" clip-rule="evenodd" transform="matrix(1 0 0 1 0 0)" d="M249.5063 108.6439L591.1727 108.6439L591.1727 108.6439L591.1727 128.1249L591.1727 128.1249L249.5063 128.1249L249.5063 128.1249L249.5063 108.6439z" /></clipPath><clipPath id="137"><path id="" clip-rule="evenodd" transform="matrix(1 0 0 1 0 0)" d="M0 0L614.4 0L614.4 0L614.4 869.1512L614.4 869.1512L0 869.1512L0 869.1512L0 0z" /></clipPath><clipPath id="138"><path id="" clip-rule="evenodd" transform="matrix(1 0 0 1 0 0)" d="M0 0L614.4 0L614.4 0L614.4 869.1512L614.4 869.1512L0 869.1512L0 869.1512L0 0z" /></clipPath><clipPath id="139"><path id="" clip-rule="evenodd" transform="matrix(1 0 0 1 0 0)" d="M249.5063 108.6439L591.1727 108.6439L591.1727 108.6439L591.1727 127.3756L591.1727 127.3756L249.5063 127.3756L249.5063 127.3756L249.5063 108.6439z" /></clipPath><clipPath id="140"><path id="" clip-rule="evenodd" transform="matrix(1 0 0 1 0 0)" d="M0 0L614.4 0L614.4 0L614.4 869.1512L614.4 869.1512L0 869.1512L0 869.1512L0 0z" /></clipPath><clipPath id="141"><path id="" clip-rule="evenodd" transform="matrix(1 0 0 1 0 0)" d="M0 0L614.4 0L614.4 0L614.4 869.1512L614.4 869.1512L0 869.1512L0 869.1512L0 0z" /></clipPath><clipPath id="142"><path id="" clip-rule="evenodd" transform="matrix(1 0 0 1 0 0)" d="M249.5063 194.8098L591.1727 194.8098L591.1727 194.8098L591.1727 214.2907L591.1727 214.2907L249.5063 214.2907L249.5063 214.2907L249.5063 194.8098z" /></clipPath><clipPath id="143"><path id="" clip-rule="evenodd" transform="matrix(1 0 0 1 0 0)" d="M0 0L614.4 0L614.4 0L614.4 869.1512L614.4 869.1512L0 869.1512L0 869.1512L0 0z" /></clipPath><clipPath id="144"><path id="" clip-rule="evenodd" transform="matrix(1 0 0 1 0 0)" d="M0 0L614.4 0L614.4 0L614.4 869.1512L614.4 869.1512L0 869.1512L0 869.1512L0 0z" /></clipPath><clipPath id="145"><path id="" clip-rule="evenodd" transform="matrix(1 0 0 1 0 0)" d="M249.5063 194.8098L591.1727 194.8098L591.1727 194.8098L591.1727 213.5414L591.1727 213.5414L249.5063 213.5414L249.5063 213.5414L249.5063 194.8098z" /></clipPath><clipPath id="146"><path id="" clip-rule="evenodd" transform="matrix(1 0 0 1 0 0)" d="M0 0L614.4 0L614.4 0L614.4 869.1512L614.4 869.1512L0 869.1512L0 869.1512L0 0z" /></clipPath><clipPath id="147"><path id="" clip-rule="evenodd" transform="matrix(1 0 0 1 0 0)" d="M0 0L614.4 0L614.4 0L614.4 869.1512L614.4 869.1512L0 869.1512L0 869.1512L0 0z" /></clipPath><clipPath id="148"><path id="" clip-rule="evenodd" transform="matrix(1 0 0 1 0 0)" d="M249.5063 279.4771L591.1727 279.4771L591.1727 279.4771L591.1727 298.958L591.1727 298.958L249.5063 298.958L249.5063 298.958L249.5063 279.4771z" /></clipPath><clipPath id="149"><path id="" clip-rule="evenodd" transform="matrix(1 0 0 1 0 0)" d="M0 0L614.4 0L614.4 0L614.4 869.1512L614.4 869.1512L0 869.1512L0 869.1512L0 0z" /></clipPath><clipPath id="150"><path id="" clip-rule="evenodd" transform="matrix(1 0 0 1 0 0)" d="M0 0L614.4 0L614.4 0L614.4 869.1512L614.4 869.1512L0 869.1512L0 869.1512L0 0z" /></clipPath><clipPath id="151"><path id="" clip-rule="evenodd" transform="matrix(1 0 0 1 0 0)" d="M249.5063 279.4771L591.1727 279.4771L591.1727 279.4771L591.1727 298.2087L591.1727 298.2087L249.5063 298.2087L249.5063 298.2087L249.5063 279.4771z" /></clipPath><clipPath id="152"><path id="" clip-rule="evenodd" transform="matrix(1 0 0 1 0 0)" d="M0 0L614.4 0L614.4 0L614.4 869.1512L614.4 869.1512L0 869.1512L0 869.1512L0 0z" /></clipPath><clipPath id="153"><path id="" clip-rule="evenodd" transform="matrix(1 0 0 1 0 0)" d="M0 0L614.4 0L614.4 0L614.4 869.1512L614.4 869.1512L0 869.1512L0 869.1512L0 0z" /></clipPath><clipPath id="154"><path id="" clip-rule="evenodd" transform="matrix(1 0 0 1 0 0)" d="M249.5063 490.0214L591.1727 490.0214L591.1727 490.0214L591.1727 509.5024L591.1727 509.5024L249.5063 509.5024L249.5063 509.5024L249.5063 490.0214z" /></clipPath><clipPath id="155"><path id="" clip-rule="evenodd" transform="matrix(1 0 0 1 0 0)" d="M0 0L614.4 0L614.4 0L614.4 869.1512L614.4 869.1512L0 869.1512L0 869.1512L0 0z" /></clipPath><clipPath id="156"><path id="" clip-rule="evenodd" transform="matrix(1 0 0 1 0 0)" d="M0 0L614.4 0L614.4 0L614.4 869.1512L614.4 869.1512L0 869.1512L0 869.1512L0 0z" /></clipPath><clipPath id="157"><path id="" clip-rule="evenodd" transform="matrix(1 0 0 1 0 0)" d="M249.5063 490.0214L591.1727 490.0214L591.1727 490.0214L591.1727 508.7531L591.1727 508.7531L249.5063 508.7531L249.5063 508.7531L249.5063 490.0214z" /></clipPath><clipPath id="158"><path id="" clip-rule="evenodd" transform="matrix(1 0 0 1 0 0)" d="M0 0L614.4 0L614.4 0L614.4 869.1512L614.4 869.1512L0 869.1512L0 869.1512L0 0z" /></clipPath><clipPath id="159"><path id="" clip-rule="evenodd" transform="matrix(1 0 0 1 0 0)" d="M0 0L614.4 0L614.4 0L614.4 869.1512L614.4 869.1512L0 869.1512L0 869.1512L0 0z" /></clipPath><clipPath id="160"><path id="" clip-rule="evenodd" transform="matrix(1 0 0 1 0 0)" d="M249.5063 637.6273L591.1727 637.6273L591.1727 637.6273L591.1727 657.1083L591.1727 657.1083L249.5063 657.1083L249.5063 657.1083L249.5063 637.6273z" /></clipPath><clipPath id="161"><path id="" clip-rule="evenodd" transform="matrix(1 0 0 1 0 0)" d="M0 0L614.4 0L614.4 0L614.4 869.1512L614.4 869.1512L0 869.1512L0 869.1512L0 0z" /></clipPath><clipPath id="162"><path id="" clip-rule="evenodd" transform="matrix(1 0 0 1 0 0)" d="M0 0L614.4 0L614.4 0L614.4 869.1512L614.4 869.1512L0 869.1512L0 869.1512L0 0z" /></clipPath><clipPath id="163"><path id="" clip-rule="evenodd" transform="matrix(1 0 0 1 0 0)" d="M249.5063 637.6273L591.1727 637.6273L591.1727 637.6273L591.1727 656.3589L591.1727 656.3589L249.5063 656.3589L249.5063 656.3589L249.5063 637.6273z" /></clipPath><clipPath id="164"><path id="" clip-rule="evenodd" transform="matrix(1 0 0 1 0 0)" d="M0 0L614.4 0L614.4 0L614.4 869.1512L614.4 869.1512L0 869.1512L0 869.1512L0 0z" /></clipPath></defs><g transform="matrix(1.333333 0 0 1.333333 0 0)"><g clip-path="url(#1)"><g clip-path="url(#2)"><path id="1" transform="matrix(1 0 0 -1 0 870)" d="M0 870L614.4 870L614.4 0.8487549L0 0.8487549z" stroke="none" fill="#FFFFFF" fill-rule="nonzero" /><path id="2" transform="matrix(1 0 0 -1 0 870)" d="M0 870L614.4 870L614.4 0.8487549L0 0.8487549z" stroke="none" fill="#FFFFFF" fill-rule="nonzero" /><path id="3" transform="matrix(1 0 0 -1 0 870)" d="M0 870L202.3024 870L202.3024 0.8487549L0 0.8487549z" stroke="none" fill="#254665" fill-rule="nonzero" /><path id="4" transform="matrix(1 0 0 -1 0 870)" d="M202.3024 870L614.4 870L614.4 0.8487549L202.3024 0.8487549z" stroke="none" fill="#FFFFFF" fill-rule="nonzero" /></g><g clip-path="url(#3)"><g clip-path="url(#4)"><path id="5" transform="matrix(1 0 0 -1 0 870)" d="M53.19804 839.28L149.1044 839.28L149.1044 720.8956L53.19804 720.8956z" stroke="none" fill="#E5E5E5" fill-rule="nonzero" /><path id="6" transform="matrix(1 0 0 -1 0 870)" d="M53.19804 839.28L149.1044 839.28L149.1044 836.283L53.19804 836.283z" stroke="none" fill="#E5E5E5" fill-rule="nonzero" /><path id="7" transform="matrix(1 0 0 -1 0 870)" d="M53.19804 723.8927L149.1044 723.8927L149.1044 720.8956L53.19804 720.8956z" stroke="none" fill="#E5E5E5" fill-rule="nonzero" /><path id="8" transform="matrix(1 0 0 -1 0 870)" d="M53.19804 839.28L56.19512 839.28L56.19512 720.8956L53.19804 720.8956z" stroke="none" fill="#E5E5E5" fill-rule="nonzero" /><path id="9" transform="matrix(1 0 0 -1 0 870)" d="M146.1073 839.28L149.1044 839.28L149.1044 720.8956L146.1073 720.8956z" stroke="none" fill="#E5E5E5" fill-rule="nonzero" /></g></g><g clip-path="url(#5)"></g><g clip-path="url(#6)"><g clip-path="url(#7)"></g></g><g clip-path="url(#8)"><g clip-path="url(#9)"><g clip-path="url(#10)"></g></g></g><g clip-path="url(#11)"></g><g clip-path="url(#12)"><g clip-path="url(#13)"></g></g><g clip-path="url(#14)"><g clip-path="url(#15)"><g clip-path="url(#16)"></g></g></g><g clip-path="url(#17)"></g><g clip-path="url(#18)"><g clip-path="url(#19)"></g></g><g clip-path="url(#20)"><g clip-path="url(#21)"><g clip-path="url(#22)"><g transform="matrix(0.1542233 0 0 0.1541704 56.19511 33.7171)"><g transform="matrix(1 0 0 1 0 0)"><image x="0" y="0" xlink:href="img_01.png" width="583" height="729" /></g></g></g></g></g><g clip-path="url(#23)"></g><g clip-path="url(#24)"><g clip-path="url(#25)"></g></g><g clip-path="url(#26)"><g clip-path="url(#27)"><g clip-path="url(#28)"></g></g></g><g clip-path="url(#29)"></g><g clip-path="url(#30)"><g clip-path="url(#31)"></g></g><g clip-path="url(#32)"><path id="105" transform="matrix(1 0 0 -1 0 870)" d="M32.9678 455.6547C 38.34455 455.6547 42.70829 451.291 42.70829 445.9142C 42.70829 440.5374 38.34455 436.1737 32.9678 436.1737C 27.59105 436.1737 23.22732 440.5374 23.22732 445.9142C 23.22732 451.291 27.59105 455.6547 32.9678 455.6547z" stroke="none" fill="#FFFFFF" fill-rule="evenodd" /></g><g clip-path="url(#33)"><g clip-path="url(#34)"></g></g><g clip-path="url(#35)"></g><g clip-path="url(#36)"><g clip-path="url(#37)"></g></g><g clip-path="url(#38)"></g><g clip-path="url(#39)"><g clip-path="url(#40)"><path id="116" transform="matrix(1 0 0 -1 0 870)" d="M26.97366 424.9346L77.9239 424.9346L77.9239 373.9844L26.97366 373.9844z" stroke="none" fill="#4487C6" fill-rule="nonzero" /><g transform="matrix(0.7492682 0 0 0.7492682 26.97366 445.0654)"><g transform="matrix(1 0 0 1 0 0)"><image x="0" y="0" xlink:href="img_02.png" width="68" height="68" /></g></g></g></g><g clip-path="url(#41)"></g><g clip-path="url(#42)"><g clip-path="url(#43)"></g></g><g clip-path="url(#44)"></g><g clip-path="url(#45)"><g clip-path="url(#46)"></g></g><g clip-path="url(#47)"></g><g clip-path="url(#48)"><g clip-path="url(#49)"><path id="120" transform="matrix(1 0 0 -1 0 870)" d="M52.44878 421.9376C 64.85666 421.9376 74.92682 411.8674 74.92682 399.4595C 74.92682 387.0517 64.85666 376.9815 52.44878 376.9815C 40.0409 376.9815 29.97073 387.0517 29.97073 399.4595C 29.97073 411.8674 40.0409 421.9376 52.44878 421.9376z" stroke="none" fill="#254665" fill-rule="evenodd" /></g></g><g clip-path="url(#50)"></g><g clip-path="url(#51)"><g clip-path="url(#52)"></g></g><g clip-path="url(#53)"></g><g clip-path="url(#54)"><g clip-path="url(#55)"></g></g><g clip-path="url(#56)"></g><g clip-path="url(#57)"><g clip-path="url(#58)"><path id="131" transform="matrix(1 0 0 -1 0 870)" d="M116.8858 424.9346L167.8361 424.9346L167.8361 373.9844L116.8858 373.9844z" stroke="none" fill="#4487C6" fill-rule="nonzero" /><g transform="matrix(0.7492682 0 0 0.7492682 116.8858 445.0654)"><g transform="matrix(1 0 0 1 0 0)"><image x="0" y="0" xlink:href="img_02.png" width="68" height="68" /></g></g></g></g><g clip-path="url(#59)"></g><g clip-path="url(#60)"><g clip-path="url(#61)"></g></g><g clip-path="url(#62)"></g><g clip-path="url(#63)"><g clip-path="url(#64)"></g></g><g clip-path="url(#65)"></g><g clip-path="url(#66)"><g clip-path="url(#67)"><path id="135" transform="matrix(1 0 0 -1 0 870)" d="M142.361 421.9376C 154.7689 421.9376 164.839 411.8674 164.839 399.4595C 164.839 387.0517 154.7689 376.9815 142.361 376.9815C 129.9531 376.9815 119.8829 387.0517 119.8829 399.4595C 119.8829 411.8674 129.9531 421.9376 142.361 421.9376z" stroke="none" fill="#254665" fill-rule="evenodd" /></g></g><g clip-path="url(#68)"></g><g clip-path="url(#69)"><g clip-path="url(#70)"></g></g><g clip-path="url(#71)"></g><g clip-path="url(#72)"><g clip-path="url(#73)"></g></g><g clip-path="url(#74)"></g><g clip-path="url(#75)"><g clip-path="url(#76)"><path id="144" transform="matrix(1 0 0 -1 0 870)" d="M26.97366 331.2761L77.9239 331.2761L77.9239 280.3259L26.97366 280.3259z" stroke="none" fill="#4487C6" fill-rule="nonzero" /><g transform="matrix(0.7492682 0 0 0.7492682 26.97366 538.7239)"><g transform="matrix(1 0 0 1 0 0)"><image x="0" y="0" xlink:href="img_03.png" width="68" height="68" /></g></g></g></g><g clip-path="url(#77)"></g><g clip-path="url(#78)"><g clip-path="url(#79)"></g></g><g clip-path="url(#80)"></g><g clip-path="url(#81)"><g clip-path="url(#82)"></g></g><g clip-path="url(#83)"></g><g clip-path="url(#84)"><g clip-path="url(#85)"><path id="148" transform="matrix(1 0 0 -1 0 870)" d="M52.44878 328.2791C 64.85666 328.2791 74.92682 318.2089 74.92682 305.801C 74.92682 293.3931 64.85666 283.3229 52.44878 283.3229C 40.0409 283.3229 29.97073 293.3931 29.97073 305.801C 29.97073 318.2089 40.0409 328.2791 52.44878 328.2791z" stroke="none" fill="#254665" fill-rule="evenodd" /></g></g><g clip-path="url(#86)"></g><g clip-path="url(#87)"><g clip-path="url(#88)"></g></g><g clip-path="url(#89)"></g><g clip-path="url(#90)"><g clip-path="url(#91)"></g></g><g clip-path="url(#92)"></g><g clip-path="url(#93)"><g clip-path="url(#94)"><path id="158" transform="matrix(1 0 0 -1 0 870)" d="M116.8858 331.2761L167.8361 331.2761L167.8361 280.3259L116.8858 280.3259z" stroke="none" fill="#4487C6" fill-rule="nonzero" /><g transform="matrix(0.7492682 0 0 0.7492682 116.8858 538.7239)"><g transform="matrix(1 0 0 1 0 0)"><image x="0" y="0" xlink:href="img_03.png" width="68" height="68" /></g></g></g></g><g clip-path="url(#95)"></g><g clip-path="url(#96)"><g clip-path="url(#97)"></g></g><g clip-path="url(#98)"></g><g clip-path="url(#99)"><g clip-path="url(#100)"></g></g><g clip-path="url(#101)"></g><g clip-path="url(#102)"><g clip-path="url(#103)"><path id="162" transform="matrix(1 0 0 -1 0 870)" d="M142.361 328.2791C 154.7689 328.2791 164.839 318.2089 164.839 305.801C 164.839 293.3931 154.7689 283.3229 142.361 283.3229C 129.9531 283.3229 119.8829 293.3931 119.8829 305.801C 119.8829 318.2089 129.9531 328.2791 142.361 328.2791z" stroke="none" fill="#254665" fill-rule="evenodd" /></g></g><g clip-path="url(#104)"></g><g clip-path="url(#105)"><g clip-path="url(#106)"></g></g><g clip-path="url(#107)"></g><g clip-path="url(#108)"><g clip-path="url(#109)"></g></g><g clip-path="url(#110)"><path id="166" transform="matrix(1 0 0 -1 0 870)" d="M43.45756 219.6352L159.5941 219.6352L159.5941 219.6352L159.5941 103.4986L159.5941 103.4986L43.45756 103.4986L43.45756 103.4986L43.45756 219.6352zM38.96195 227.1279L164.0897 227.1279C 165.7441 227.1279 167.0868 225.7852 167.0868 224.1308L167.0868 224.1308L167.0868 99.00293C 167.0868 97.34863 165.7441 96.00586 164.0897 96.00586L164.0897 96.00586L38.96195 96.00586C 37.30756 96.00586 35.96487 97.34863 35.96487 99.00293L35.96487 99.00293L35.96487 224.1308C 35.96487 225.7852 37.30756 227.1279 38.96195 227.1279z" stroke="none" fill="#FFFFFF" fill-rule="evenodd" /></g><g clip-path="url(#111)"><g clip-path="url(#112)"></g></g><g clip-path="url(#113)"><g clip-path="url(#114)"><g clip-path="url(#115)"></g></g></g><g clip-path="url(#116)"></g><g clip-path="url(#117)"><g clip-path="url(#118)"></g></g><g clip-path="url(#119)"><g clip-path="url(#120)"><g clip-path="url(#121)"></g></g></g><g clip-path="url(#122)"></g><g clip-path="url(#123)"><g clip-path="url(#124)"></g></g><g clip-path="url(#125)"><g clip-path="url(#126)"><g clip-path="url(#127)"><g transform="matrix(0.6713096 0 0 0.6713098 43.45755 650.3649)"><g transform="matrix(1 0 0 1 0 0)"><image x="0" y="0" xlink:href="img_04.png" width="173" height="173" /></g></g></g></g></g><g clip-path="url(#128)"></g><g clip-path="url(#129)"><g clip-path="url(#130)"></g></g><g clip-path="url(#131)"><g clip-path="url(#132)"><g clip-path="url(#133)"></g></g></g><g clip-path="url(#134)"><path id="206" transform="matrix(1 0 0 -1 0 870)" d="M235.2702 761.3561C 240.647 761.3561 245.0107 756.9924 245.0107 751.6156C 245.0107 746.2389 240.647 741.8751 235.2702 741.8751C 229.8935 741.8751 225.5297 746.2389 225.5297 751.6156C 225.5297 756.9924 229.8935 761.3561 235.2702 761.3561z" stroke="none" fill="#254665" fill-rule="evenodd" /></g><g clip-path="url(#135)"><g clip-path="url(#136)"><path id="208" transform="matrix(1 0 0 -1 0 870)" d="M249.5063 742.6244L591.1726 742.6244L591.1726 741.8751L249.5063 741.8751z" stroke="none" fill="#254665" fill-rule="nonzero" /></g></g><g clip-path="url(#137)"></g><g clip-path="url(#138)"><g clip-path="url(#139)"></g></g><g clip-path="url(#140)"><path id="241" transform="matrix(1 0 0 -1 0 870)" d="M235.2702 675.1902C 240.647 675.1902 245.0107 670.8265 245.0107 665.4498C 245.0107 660.073 240.647 655.7093 235.2702 655.7093C 229.8935 655.7093 225.5297 660.073 225.5297 665.4498C 225.5297 670.8265 229.8935 675.1902 235.2702 675.1902z" stroke="none" fill="#254665" fill-rule="evenodd" /></g><g clip-path="url(#141)"><g clip-path="url(#142)"><path id="243" transform="matrix(1 0 0 -1 0 870)" d="M249.5063 656.4586L591.1726 656.4586L591.1726 655.7093L249.5063 655.7093z" stroke="none" fill="#254665" fill-rule="nonzero" /></g></g><g clip-path="url(#143)"></g><g clip-path="url(#144)"><g clip-path="url(#145)"></g></g><g clip-path="url(#146)"><path id="278" transform="matrix(1 0 0 -1 0 870)" d="M235.2702 590.5229C 240.647 590.5229 245.0107 586.1592 245.0107 580.7825C 245.0107 575.4058 240.647 571.042 235.2702 571.042C 229.8935 571.042 225.5297 575.4058 225.5297 580.7825C 225.5297 586.1592 229.8935 590.5229 235.2702 590.5229z" stroke="none" fill="#254665" fill-rule="evenodd" /></g><g clip-path="url(#147)"><g clip-path="url(#148)"><path id="280" transform="matrix(1 0 0 -1 0 870)" d="M249.5063 571.7913L591.1726 571.7913L591.1726 571.042L249.5063 571.042z" stroke="none" fill="#254665" fill-rule="nonzero" /></g></g><g clip-path="url(#149)"></g><g clip-path="url(#150)"><g clip-path="url(#151)"></g></g><g clip-path="url(#152)"><path id="566" transform="matrix(1 0 0 -1 0 870)" d="M235.2702 379.9786C 240.647 379.9786 245.0107 375.6148 245.0107 370.2381C 245.0107 364.8613 240.647 360.4976 235.2702 360.4976C 229.8935 360.4976 225.5297 364.8613 225.5297 370.2381C 225.5297 375.6148 229.8935 379.9786 235.2702 379.9786z" stroke="none" fill="#254665" fill-rule="evenodd" /></g><g clip-path="url(#153)"><g clip-path="url(#154)"><path id="568" transform="matrix(1 0 0 -1 0 870)" d="M249.5063 361.2468L591.1726 361.2468L591.1726 360.4976L249.5063 360.4976z" stroke="none" fill="#254665" fill-rule="nonzero" /></g></g><g clip-path="url(#155)"></g><g clip-path="url(#156)"><g clip-path="url(#157)"></g></g><g clip-path="url(#158)"><path id="753" transform="matrix(1 0 0 -1 0 870)" d="M235.2702 232.3727C 240.647 232.3727 245.0107 228.009 245.0107 222.6323C 245.0107 217.2554 240.647 212.8917 235.2702 212.8917C 229.8935 212.8917 225.5297 217.2554 225.5297 222.6323C 225.5297 228.009 229.8935 232.3727 235.2702 232.3727z" stroke="none" fill="#254665" fill-rule="evenodd" /></g><g clip-path="url(#159)"><g clip-path="url(#160)"><path id="755" transform="matrix(1 0 0 -1 0 870)" d="M249.5063 213.641L591.1726 213.641L591.1726 212.8917L249.5063 212.8917z" stroke="none" fill="#254665" fill-rule="nonzero" /></g></g><g clip-path="url(#161)"></g><g clip-path="url(#162)"><g clip-path="url(#163)"></g></g><g clip-path="url(#164)"><path id="760" transform="matrix(1 0 0 -1 0 870)" d="M225.5297 189.6644L591.1726 189.6644L591.1726 147.7054L225.5297 147.7054z" stroke="none" fill="#F8F8F8" fill-rule="nonzero" /><path id="818" transform="matrix(1 0 0 -1 0 870)" d="M225.5297 138.7142L591.1726 138.7142L591.1726 96.75513L225.5297 96.75513z" stroke="none" fill="#F8F8F8" fill-rule="nonzero" /><path id="872" transform="matrix(1 0 0 -1 0 870)" d="M225.5297 87.76392L591.1726 87.76392L591.1726 45.80487L225.5297 45.80487z" stroke="none" fill="#F8F8F8" fill-rule="nonzero" /></g></g></g></svg>